<svg 
 xmlns="http://www.w3.org/2000/svg"
 xmlns:xlink="http://www.w3.org/1999/xlink"
 width="16px" height="11px">
<path fill-rule="evenodd"  fill="rgb(255, 255, 255)"
 d="M6.120,7.37 L6.120,7.37 C6.120,7.631 5.921,8.49 5.481,8.247 C5.239,8.379 4.931,8.423 4.491,8.423 L2.423,8.423 L2.423,5.848 L4.535,5.848 C4.931,5.848 5.283,5.870 5.481,6.2 C5.921,6.200 6.120,6.553 6.120,7.37 ZM13.447,4.528 L13.447,4.528 C13.711,4.814 13.865,5.166 13.909,5.650 L10.784,5.650 C10.872,5.210 11.26,4.858 11.268,4.572 C11.532,4.286 11.884,4.176 12.368,4.176 C12.765,4.176 13.117,4.286 13.447,4.528 ZM0.201,0.414 L0.201,0.414 L0.201,10.117 L4.557,10.117 C5.85,10.117 5.525,10.73 5.943,10.7 C6.340,9.875 6.736,9.721 7.22,9.479 C7.308,9.281 7.528,9.39 7.726,8.731 C8.12,8.247 8.166,7.741 8.166,7.191 C8.166,6.641 8.12,6.156 7.770,5.760 C7.528,5.364 7.132,5.78 6.670,4.880 C6.978,4.726 7.220,4.572 7.374,4.330 C7.704,3.978 7.858,3.494 7.858,2.900 C7.858,2.350 7.704,1.844 7.418,1.448 C6.912,0.766 6.76,0.414 4.887,0.414 L0.201,0.414 ZM9.882,3.626 L9.882,3.626 C9.244,4.286 8.914,5.210 8.914,6.399 C8.914,7.697 9.244,8.621 9.948,9.215 C10.674,9.765 11.488,10.29 12.412,10.29 C13.513,10.29 14.437,9.721 15.31,9.39 C15.427,8.621 15.647,8.181 15.691,7.785 L13.843,7.785 C13.755,7.983 13.645,8.137 13.469,8.247 C13.205,8.445 12.874,8.577 12.456,8.577 C12.82,8.577 11.730,8.489 11.466,8.291 C11.26,8.27 10.740,7.543 10.740,6.839 L15.823,6.839 C15.823,6.244 15.779,5.804 15.735,5.474 C15.647,4.924 15.449,4.462 15.185,4.22 C14.855,3.538 14.459,3.230 13.997,2.988 C13.513,2.790 12.963,2.680 12.368,2.680 C11.334,2.680 10.498,2.988 9.882,3.626 ZM10.388,0.810 L10.388,0.810 L10.388,1.800 L14.261,1.800 L14.261,0.810 L10.388,0.810 ZM5.525,3.978 L5.525,3.978 C5.239,4.132 4.931,4.220 4.491,4.220 L2.423,4.220 L2.423,2.86 L4.249,2.86 C4.733,2.86 5.85,2.152 5.393,2.240 C5.745,2.394 5.921,2.680 5.921,3.142 C5.921,3.538 5.790,3.824 5.525,3.978 Z"/>
</svg>