<svg 
 xmlns="http://www.w3.org/2000/svg"
 xmlns:xlink="http://www.w3.org/1999/xlink"
 width="16px" height="12px">
<path fill-rule="evenodd"  fill="rgb(255, 255, 255)"
 d="M13.953,6.204 L13.953,6.204 C14.850,6.204 15.448,5.882 15.770,5.514 C15.241,5.583 14.436,5.514 14.22,5.330 C14.896,5.261 15.471,4.847 15.724,4.296 C15.402,4.502 14.413,4.709 13.861,4.502 C13.861,4.388 13.815,4.273 13.792,4.181 C13.378,2.640 11.953,1.444 10.504,1.582 C10.642,1.536 10.757,1.490 10.895,1.444 C11.10,1.398 11.953,1.237 11.838,0.915 C11.723,0.616 10.550,1.122 10.297,1.191 C10.596,1.76 11.102,0.915 11.125,0.570 C10.688,0.616 10.274,0.823 9.929,1.168 C10.67,0.984 10.136,0.869 10.136,0.662 C8.986,1.444 8.274,2.939 7.745,4.434 C7.285,4.20 6.917,3.675 6.549,3.468 C5.583,2.985 4.387,2.410 2.571,1.743 C2.525,2.364 2.847,3.146 3.882,3.675 C3.675,3.652 3.261,3.721 2.939,3.813 C3.54,4.502 3.514,5.100 4.686,5.330 C4.134,5.376 3.859,5.514 3.606,5.744 C3.859,6.250 4.479,6.825 5.537,6.710 C4.341,7.239 5.54,8.205 5.997,8.21 C4.341,9.722 1.743,9.607 0.248,8.205 C4.181,13.540 12.666,11.332 13.953,6.204 Z"/>
</svg>